<svg version="1.1" id="Layer_1" xmlns="http://www.w3.org/2000/svg" xmlns:xlink="http://www.w3.org/1999/xlink" x="0px" y="0px"
	 width="100%" viewBox="0 0 393 393" enable-background="new 0 0 393 393" xml:space="preserve">
<path fill="#FEFEFF" opacity="1.000000" stroke="none" 
	d="
M237.000000,394.000000 
	C158.000031,394.000000 79.500046,394.000000 1.000053,394.000000 
	C1.000035,263.000061 1.000035,132.000122 1.000018,1.000141 
	C131.999893,1.000094 262.999786,1.000094 393.999756,1.000047 
	C393.999847,131.999863 393.999847,262.999725 393.999939,393.999786 
	C341.833344,394.000000 289.666656,394.000000 237.000000,394.000000 
M100.814880,343.742126 
	C126.458221,358.439636 153.918335,367.003265 183.160126,369.027710 
	C183.160126,254.224991 183.160126,140.204590 183.160126,25.886160 
	C177.701889,26.629547 172.923386,27.208319 168.168259,27.939245 
	C125.544350,34.491123 87.831070,51.147953 58.202118,83.223999 
	C20.813622,123.700462 7.472526,172.026260 16.589642,225.727539 
	C25.436377,277.836243 55.345531,316.201721 100.814880,343.742126 
M269.186554,357.770996 
	C314.589081,340.481964 347.721405,310.188049 367.369568,265.459930 
	C375.223846,247.580124 378.614471,228.624298 381.439423,209.105804 
	C324.591980,209.105804 267.560944,209.105804 210.279633,209.105804 
	C210.279633,262.306183 210.279633,315.513000 210.279633,368.694153 
	C222.624619,369.829376 246.903366,365.336639 269.186554,357.770996 
M340.499939,182.329620 
	C353.255829,182.329620 366.011688,182.329620 378.793274,182.329620 
	C373.793030,90.001991 298.987488,28.719067 210.291687,26.714792 
	C210.291687,78.473022 210.291687,130.228928 210.291687,182.329819 
	C253.553726,182.329819 296.526825,182.329819 340.499939,182.329620 
z"/>
<path fill="#374A9B" opacity="1.000000" stroke="none" 
	d="
M100.510361,343.535492 
	C55.345531,316.201721 25.436377,277.836243 16.589642,225.727539 
	C7.472526,172.026260 20.813622,123.700462 58.202118,83.223999 
	C87.831070,51.147953 125.544350,34.491123 168.168259,27.939245 
	C172.923386,27.208319 177.701889,26.629547 183.160126,25.886160 
	C183.160126,140.204590 183.160126,254.224991 183.160126,369.027710 
	C153.918335,367.003265 126.458221,358.439636 100.510361,343.535492 
z"/>
<path fill="#374A9B" opacity="1.000000" stroke="none" 
	d="
M268.813690,357.889771 
	C246.903366,365.336639 222.624619,369.829376 210.279633,368.694153 
	C210.279633,315.513000 210.279633,262.306183 210.279633,209.105804 
	C267.560944,209.105804 324.591980,209.105804 381.439423,209.105804 
	C378.614471,228.624298 375.223846,247.580124 367.369568,265.459930 
	C347.721405,310.188049 314.589081,340.481964 268.813690,357.889771 
z"/>
<path fill="#374A9B" opacity="1.000000" stroke="none" 
	d="
M339.999939,182.329712 
	C296.526825,182.329819 253.553726,182.329819 210.291687,182.329819 
	C210.291687,130.228928 210.291687,78.473022 210.291687,26.714792 
	C298.987488,28.719067 373.793030,90.001991 378.793274,182.329620 
	C366.011688,182.329620 353.255829,182.329620 339.999939,182.329712 
z"/>
</svg>